<svg xmlns="http://www.w3.org/2000/svg" viewBox="0 0 2560 1440" width="2560" height="1440">
  <defs>
    <style>
      @import url('https://fonts.googleapis.com/css2?family=Syne:wght@400;500;600&amp;family=Inter:wght@300;400;500&amp;display=swap');
      .wp-brand   { font-family: 'Syne', sans-serif; font-weight: 500; font-size: 112px; fill: #e2eaf8; letter-spacing: -0.03em; text-anchor: middle; }
      .wp-tagline { font-family: 'Inter', sans-serif; font-weight: 300; font-size: 28px; fill: rgba(226,234,248,0.50); letter-spacing: 0.08em; text-transform: uppercase; text-anchor: middle; }
    </style>
    <linearGradient id="wpBg2" x1="0%" y1="0%" x2="100%" y2="100%">
      <stop offset="0%" stop-color="#04060e"/>
      <stop offset="100%" stop-color="#070b18"/>
    </linearGradient>
    <radialGradient id="wpGlTL2" cx="0%" cy="0%" r="55%">
      <stop offset="0%" stop-color="#4FA8FF" stop-opacity="0.13"/>
      <stop offset="100%" stop-color="#04060e" stop-opacity="0"/>
    </radialGradient>
    <radialGradient id="wpGlBR2" cx="100%" cy="100%" r="55%">
      <stop offset="0%" stop-color="#4FA8FF" stop-opacity="0.11"/>
      <stop offset="100%" stop-color="#04060e" stop-opacity="0"/>
    </radialGradient>
  </defs>

  <rect width="2560" height="1440" fill="url(#wpBg2)"/>
  <rect width="2560" height="1440" fill="url(#wpGlTL2)"/>
  <rect width="2560" height="1440" fill="url(#wpGlBR2)"/>

  <!-- Hex grid -->
  <g fill="none" stroke="#4FA8FF" stroke-opacity="0.04">
    <g transform="translate(40, 20) scale(7)"><path d="M36 20L28 6L12 6L4 20L12 34L28 34Z" stroke-width="1" stroke-linejoin="round"/></g>
    <g transform="translate(370, 20) scale(7)"><path d="M36 20L28 6L12 6L4 20L12 34L28 34Z" stroke-width="1" stroke-linejoin="round"/></g>
    <g transform="translate(700, 20) scale(7)"><path d="M36 20L28 6L12 6L4 20L12 34L28 34Z" stroke-width="1" stroke-linejoin="round"/></g>
    <g transform="translate(1030, 20) scale(7)"><path d="M36 20L28 6L12 6L4 20L12 34L28 34Z" stroke-width="1" stroke-linejoin="round"/></g>
    <g transform="translate(1360, 20) scale(7)"><path d="M36 20L28 6L12 6L4 20L12 34L28 34Z" stroke-width="1" stroke-linejoin="round"/></g>
    <g transform="translate(1690, 20) scale(7)"><path d="M36 20L28 6L12 6L4 20L12 34L28 34Z" stroke-width="1" stroke-linejoin="round"/></g>
    <g transform="translate(2020, 20) scale(7)"><path d="M36 20L28 6L12 6L4 20L12 34L28 34Z" stroke-width="1" stroke-linejoin="round"/></g>
    <g transform="translate(2350, 20) scale(7)"><path d="M36 20L28 6L12 6L4 20L12 34L28 34Z" stroke-width="1" stroke-linejoin="round"/></g>
    <g transform="translate(205, 234) scale(7)"><path d="M36 20L28 6L12 6L4 20L12 34L28 34Z" stroke-width="1" stroke-linejoin="round"/></g>
    <g transform="translate(535, 234) scale(7)"><path d="M36 20L28 6L12 6L4 20L12 34L28 34Z" stroke-width="1" stroke-linejoin="round"/></g>
    <g transform="translate(865, 234) scale(7)"><path d="M36 20L28 6L12 6L4 20L12 34L28 34Z" stroke-width="1" stroke-linejoin="round"/></g>
    <g transform="translate(1195, 234) scale(7)"><path d="M36 20L28 6L12 6L4 20L12 34L28 34Z" stroke-width="1" stroke-linejoin="round"/></g>
    <g transform="translate(1525, 234) scale(7)"><path d="M36 20L28 6L12 6L4 20L12 34L28 34Z" stroke-width="1" stroke-linejoin="round"/></g>
    <g transform="translate(1855, 234) scale(7)"><path d="M36 20L28 6L12 6L4 20L12 34L28 34Z" stroke-width="1" stroke-linejoin="round"/></g>
    <g transform="translate(2185, 234) scale(7)"><path d="M36 20L28 6L12 6L4 20L12 34L28 34Z" stroke-width="1" stroke-linejoin="round"/></g>
    <g transform="translate(40, 448) scale(7)"><path d="M36 20L28 6L12 6L4 20L12 34L28 34Z" stroke-width="1" stroke-linejoin="round"/></g>
    <g transform="translate(370, 448) scale(7)"><path d="M36 20L28 6L12 6L4 20L12 34L28 34Z" stroke-width="1" stroke-linejoin="round"/></g>
    <g transform="translate(700, 448) scale(7)"><path d="M36 20L28 6L12 6L4 20L12 34L28 34Z" stroke-width="1" stroke-linejoin="round"/></g>
    <g transform="translate(1030, 448) scale(7)"><path d="M36 20L28 6L12 6L4 20L12 34L28 34Z" stroke-width="1" stroke-linejoin="round"/></g>
    <g transform="translate(1360, 448) scale(7)"><path d="M36 20L28 6L12 6L4 20L12 34L28 34Z" stroke-width="1" stroke-linejoin="round"/></g>
    <g transform="translate(1690, 448) scale(7)"><path d="M36 20L28 6L12 6L4 20L12 34L28 34Z" stroke-width="1" stroke-linejoin="round"/></g>
    <g transform="translate(2020, 448) scale(7)"><path d="M36 20L28 6L12 6L4 20L12 34L28 34Z" stroke-width="1" stroke-linejoin="round"/></g>
    <g transform="translate(2350, 448) scale(7)"><path d="M36 20L28 6L12 6L4 20L12 34L28 34Z" stroke-width="1" stroke-linejoin="round"/></g>
    <g transform="translate(205, 662) scale(7)"><path d="M36 20L28 6L12 6L4 20L12 34L28 34Z" stroke-width="1" stroke-linejoin="round"/></g>
    <g transform="translate(535, 662) scale(7)"><path d="M36 20L28 6L12 6L4 20L12 34L28 34Z" stroke-width="1" stroke-linejoin="round"/></g>
    <g transform="translate(865, 662) scale(7)"><path d="M36 20L28 6L12 6L4 20L12 34L28 34Z" stroke-width="1" stroke-linejoin="round"/></g>
    <g transform="translate(1195, 662) scale(7)"><path d="M36 20L28 6L12 6L4 20L12 34L28 34Z" stroke-width="1" stroke-linejoin="round"/></g>
    <g transform="translate(1525, 662) scale(7)"><path d="M36 20L28 6L12 6L4 20L12 34L28 34Z" stroke-width="1" stroke-linejoin="round"/></g>
    <g transform="translate(1855, 662) scale(7)"><path d="M36 20L28 6L12 6L4 20L12 34L28 34Z" stroke-width="1" stroke-linejoin="round"/></g>
    <g transform="translate(2185, 662) scale(7)"><path d="M36 20L28 6L12 6L4 20L12 34L28 34Z" stroke-width="1" stroke-linejoin="round"/></g>
    <g transform="translate(40, 876) scale(7)"><path d="M36 20L28 6L12 6L4 20L12 34L28 34Z" stroke-width="1" stroke-linejoin="round"/></g>
    <g transform="translate(370, 876) scale(7)"><path d="M36 20L28 6L12 6L4 20L12 34L28 34Z" stroke-width="1" stroke-linejoin="round"/></g>
    <g transform="translate(700, 876) scale(7)"><path d="M36 20L28 6L12 6L4 20L12 34L28 34Z" stroke-width="1" stroke-linejoin="round"/></g>
    <g transform="translate(1030, 876) scale(7)"><path d="M36 20L28 6L12 6L4 20L12 34L28 34Z" stroke-width="1" stroke-linejoin="round"/></g>
    <g transform="translate(1360, 876) scale(7)"><path d="M36 20L28 6L12 6L4 20L12 34L28 34Z" stroke-width="1" stroke-linejoin="round"/></g>
    <g transform="translate(1690, 876) scale(7)"><path d="M36 20L28 6L12 6L4 20L12 34L28 34Z" stroke-width="1" stroke-linejoin="round"/></g>
    <g transform="translate(2020, 876) scale(7)"><path d="M36 20L28 6L12 6L4 20L12 34L28 34Z" stroke-width="1" stroke-linejoin="round"/></g>
    <g transform="translate(2350, 876) scale(7)"><path d="M36 20L28 6L12 6L4 20L12 34L28 34Z" stroke-width="1" stroke-linejoin="round"/></g>
    <g transform="translate(205, 1090) scale(7)"><path d="M36 20L28 6L12 6L4 20L12 34L28 34Z" stroke-width="1" stroke-linejoin="round"/></g>
    <g transform="translate(535, 1090) scale(7)"><path d="M36 20L28 6L12 6L4 20L12 34L28 34Z" stroke-width="1" stroke-linejoin="round"/></g>
    <g transform="translate(865, 1090) scale(7)"><path d="M36 20L28 6L12 6L4 20L12 34L28 34Z" stroke-width="1" stroke-linejoin="round"/></g>
    <g transform="translate(1195, 1090) scale(7)"><path d="M36 20L28 6L12 6L4 20L12 34L28 34Z" stroke-width="1" stroke-linejoin="round"/></g>
    <g transform="translate(1525, 1090) scale(7)"><path d="M36 20L28 6L12 6L4 20L12 34L28 34Z" stroke-width="1" stroke-linejoin="round"/></g>
    <g transform="translate(1855, 1090) scale(7)"><path d="M36 20L28 6L12 6L4 20L12 34L28 34Z" stroke-width="1" stroke-linejoin="round"/></g>
    <g transform="translate(2185, 1090) scale(7)"><path d="M36 20L28 6L12 6L4 20L12 34L28 34Z" stroke-width="1" stroke-linejoin="round"/></g>
    <g transform="translate(40, 1304) scale(7)"><path d="M36 20L28 6L12 6L4 20L12 34L28 34Z" stroke-width="1" stroke-linejoin="round"/></g>
    <g transform="translate(370, 1304) scale(7)"><path d="M36 20L28 6L12 6L4 20L12 34L28 34Z" stroke-width="1" stroke-linejoin="round"/></g>
    <g transform="translate(700, 1304) scale(7)"><path d="M36 20L28 6L12 6L4 20L12 34L28 34Z" stroke-width="1" stroke-linejoin="round"/></g>
    <g transform="translate(1030, 1304) scale(7)"><path d="M36 20L28 6L12 6L4 20L12 34L28 34Z" stroke-width="1" stroke-linejoin="round"/></g>
    <g transform="translate(1360, 1304) scale(7)"><path d="M36 20L28 6L12 6L4 20L12 34L28 34Z" stroke-width="1" stroke-linejoin="round"/></g>
    <g transform="translate(1690, 1304) scale(7)"><path d="M36 20L28 6L12 6L4 20L12 34L28 34Z" stroke-width="1" stroke-linejoin="round"/></g>
    <g transform="translate(2020, 1304) scale(7)"><path d="M36 20L28 6L12 6L4 20L12 34L28 34Z" stroke-width="1" stroke-linejoin="round"/></g>
    <g transform="translate(2350, 1304) scale(7)"><path d="M36 20L28 6L12 6L4 20L12 34L28 34Z" stroke-width="1" stroke-linejoin="round"/></g>
  </g>

  <!-- Center mark: scale 9, translate = 1280-180=1100, 720-180=540 -->
  <g transform="translate(1100, 540) scale(9)">
    <path d="M36 20L28 6L12 6L4 20L12 34L28 34Z" stroke="#e2eaf8" stroke-width="1.6" stroke-linejoin="round" fill="none"/>
    <path d="M20 13L27 20L20 27L13 20Z" fill="#e2eaf8"/>
  </g>

  <text x="1280" y="924" class="wp-brand">Atrya</text>
  <text x="1280" y="972" class="wp-tagline">Payment logic. Settlement. Unified.</text>
</svg>
